<?xml version="1.0" encoding="UTF-8" standalone="no"?>
<svg
   xmlns:dc="http://purl.org/dc/elements/1.1/"
   xmlns:cc="http://creativecommons.org/ns#"
   xmlns:rdf="http://www.w3.org/1999/02/22-rdf-syntax-ns#"
   xmlns:svg="http://www.w3.org/2000/svg"
   xmlns="http://www.w3.org/2000/svg"
   id="svg5019"
   version="1.1"
   viewBox="0 0 210 297"
   height="297mm"
   width="210mm">
  <defs
     id="defs5013" />
  <metadata
     id="metadata5016">
    <rdf:RDF>
      <cc:Work
         rdf:about="">
        <dc:format>image/svg+xml</dc:format>
        <dc:type
           rdf:resource="http://purl.org/dc/dcmitype/StillImage" />
        <dc:title></dc:title>
      </cc:Work>
    </rdf:RDF>
  </metadata>
  <g
     id="layer1">
    <circle
       r="32.127972"
       cy="85.711304"
       cx="105.45536"
       id="path5029"
       style="fill:none;stroke-width:7.9375;stroke:#005cff;stroke-opacity:1;stroke-miterlimit:4;stroke-dasharray:none" />
    <g
       id="text5033"
       style="font-style:normal;font-variant:normal;font-weight:normal;font-stretch:normal;font-size:10.58333302px;line-height:1.25;font-family:Verdana;-inkscape-font-specification:Verdana;letter-spacing:0px;word-spacing:0px;fill:#000000;fill-opacity:1;stroke:none;stroke-width:0.26458332;stroke-miterlimit:4;stroke-dasharray:none"
       aria-label="Bull Yen">
      <path
         id="path5840"
         style="font-style:normal;font-variant:normal;font-weight:bold;font-stretch:normal;font-size:16.93333244px;line-height:1;font-family:Verdana;-inkscape-font-specification:'Verdana Bold';text-align:center;letter-spacing:-1.85208333px;text-anchor:middle;fill:#808080;stroke:#000000;stroke-width:0.26458332;stroke-miterlimit:4;stroke-dasharray:none;stroke-opacity:1"
         d="m 84.324306,103.48238 q 0,0.89297 -0.363802,1.59577 -0.355534,0.7028 -0.983919,1.16582 -0.727604,0.5457 -1.604037,0.77721 -0.868164,0.23151 -2.207617,0.23151 H 73.790583 V 94.941301 h 4.779036 q 1.488281,0 2.174544,0.09922 0.694531,0.09922 1.372526,0.438216 0.702799,0.355534 1.041797,0.959115 0.347265,0.595312 0.347265,1.364258 0,0.892968 -0.471289,1.579231 -0.471289,0.677991 -1.331184,1.058331 v 0.0661 q 1.207161,0.23978 1.90996,0.99219 0.711068,0.7524 0.711068,1.98437 z m -4.067968,-5.060155 q 0,-0.305925 -0.157097,-0.611849 -0.148828,-0.305924 -0.537435,-0.454753 -0.347265,-0.132291 -0.868164,-0.14056 -0.51263,-0.01654 -1.44694,-0.01654 h -0.297656 v 2.604492 h 0.496094 q 0.752409,0 1.281575,-0.02481 0.529167,-0.0248 0.835091,-0.165364 0.429948,-0.190169 0.56224,-0.487826 0.132292,-0.305924 0.132292,-0.702799 z m 0.777213,5.010545 q 0,-0.58704 -0.23151,-0.90124 -0.223243,-0.32246 -0.768946,-0.47955 -0.37207,-0.10749 -1.02526,-0.11576 -0.65319,-0.008 -1.364258,-0.008 h -0.694531 v 3.06752 h 0.23151 q 1.339454,0 1.91823,-0.008 0.578776,-0.008 1.066601,-0.21498 0.496094,-0.2067 0.677995,-0.5457 0.190169,-0.34726 0.190169,-0.79375 z" />
      <path
         id="path5842"
         style="font-style:normal;font-variant:normal;font-weight:bold;font-stretch:normal;font-size:16.93333244px;line-height:1;font-family:Verdana;-inkscape-font-specification:'Verdana Bold';text-align:center;letter-spacing:-1.85208333px;text-anchor:middle;fill:#808080;stroke:#000000;stroke-width:0.26458332;stroke-miterlimit:4;stroke-dasharray:none;stroke-opacity:1"
         d="m 93.923719,107.25269 h -2.976562 v -1.02526 q -0.826823,0.62839 -1.513086,0.95912 -0.686263,0.32246 -1.637109,0.32246 -1.537891,0 -2.372982,-0.8847 -0.826823,-0.8847 -0.826823,-2.61276 v -6.044078 h 2.993099 v 4.605408 q 0,0.7028 0.04134,1.17408 0.04961,0.46303 0.214974,0.76895 0.157097,0.30592 0.471289,0.44648 0.322461,0.14056 0.892969,0.14056 0.380339,0 0.843359,-0.14056 0.463021,-0.14056 0.892969,-0.41341 v -6.581508 h 2.976562 z" />
      <path
         id="path5844"
         style="font-style:normal;font-variant:normal;font-weight:bold;font-stretch:normal;font-size:16.93333244px;line-height:1;font-family:Verdana;-inkscape-font-specification:'Verdana Bold';text-align:center;letter-spacing:-1.85208333px;text-anchor:middle;fill:#808080;stroke:#000000;stroke-width:0.26458332;stroke-miterlimit:4;stroke-dasharray:none;stroke-opacity:1"
         d="M 97.867665,107.25269 H 94.891103 V 94.387329 h 2.976562 z" />
      <path
         id="path5846"
         style="font-style:normal;font-variant:normal;font-weight:bold;font-stretch:normal;font-size:16.93333244px;line-height:1;font-family:Verdana;-inkscape-font-specification:'Verdana Bold';text-align:center;letter-spacing:-1.85208333px;text-anchor:middle;fill:#808080;stroke:#000000;stroke-width:0.26458332;stroke-miterlimit:4;stroke-dasharray:none;stroke-opacity:1"
         d="M 101.80334,107.25269 H 98.826779 V 94.387329 h 2.976561 z" />
      <path
         id="path5848"
         style="font-style:normal;font-variant:normal;font-weight:bold;font-stretch:normal;font-size:16.93333244px;line-height:1;font-family:Verdana;-inkscape-font-specification:'Verdana Bold';text-align:center;letter-spacing:-1.85208333px;text-anchor:middle;fill:#808080;stroke:#000000;stroke-width:0.26458332;stroke-miterlimit:4;stroke-dasharray:none;stroke-opacity:1"
         d="m 117.69488,94.941301 -4.53926,7.548889 v 4.7625 h -3.175 v -4.61367 l -4.61367,-7.697719 h 3.60495 l 2.66236,4.762499 2.57142,-4.762499 z" />
      <path
         id="path5850"
         style="font-style:normal;font-variant:normal;font-weight:bold;font-stretch:normal;font-size:16.93333244px;line-height:1;font-family:Verdana;-inkscape-font-specification:'Verdana Bold';text-align:center;letter-spacing:-1.85208333px;text-anchor:middle;fill:#808080;stroke:#000000;stroke-width:0.26458332;stroke-miterlimit:4;stroke-dasharray:none;stroke-opacity:1"
         d="m 126.4592,103.15992 h -6.81302 q 0.0661,1.09141 0.82682,1.67018 0.76895,0.57878 2.25723,0.57878 0.94258,0 1.82728,-0.339 0.8847,-0.339 1.39733,-0.7276 h 0.33073 v 2.38951 q -1.00873,0.40515 -1.9017,0.58705 -0.89297,0.1819 -1.9761,0.1819 -2.79466,0 -4.28295,-1.25677 -1.48828,-1.25677 -1.48828,-3.58014 0,-2.29857 1.4056,-3.638024 1.41387,-1.347722 3.86953,-1.347722 2.2655,0 3.40651,1.149284 1.14102,1.141016 1.14102,3.290752 z m -2.96003,-1.7446 q -0.0248,-0.93431 -0.46302,-1.4056 -0.43821,-0.471284 -1.36426,-0.471284 -0.85989,0 -1.41386,0.446484 -0.55397,0.44648 -0.62012,1.4304 z" />
      <path
         id="path5852"
         style="font-style:normal;font-variant:normal;font-weight:bold;font-stretch:normal;font-size:16.93333244px;line-height:1;font-family:Verdana;-inkscape-font-specification:'Verdana Bold';text-align:center;letter-spacing:-1.85208333px;text-anchor:middle;fill:#808080;stroke:#000000;stroke-width:0.26458332;stroke-miterlimit:4;stroke-dasharray:none;stroke-opacity:1"
         d="m 136.03381,107.25269 h -2.9931 v -4.6054 q 0,-0.56224 -0.0579,-1.11621 -0.0579,-0.56224 -0.19844,-0.82682 -0.16536,-0.30593 -0.48782,-0.44649 -0.31419,-0.14056 -0.8847,-0.14056 -0.40515,0 -0.82683,0.13229 -0.41341,0.1323 -0.90123,0.42168 v 6.58151 h -2.97656 v -9.285218 h 2.97656 v 1.025261 q 0.79375,-0.620117 1.52135,-0.950847 0.73587,-0.330729 1.62884,-0.330729 1.50482,0 2.34818,0.876432 0.85163,0.876433 0.85163,2.621031 z" />
    </g>
  </g>
</svg>
