<?xml version="1.0" encoding="UTF-8" standalone="no"?>
<svg
   xmlns:dc="http://purl.org/dc/elements/1.1/"
   xmlns:cc="http://creativecommons.org/ns#"
   xmlns:rdf="http://www.w3.org/1999/02/22-rdf-syntax-ns#"
   xmlns:svg="http://www.w3.org/2000/svg"
   xmlns="http://www.w3.org/2000/svg"
   id="svg8"
   version="1.1"
   viewBox="0 0 210 297"
   height="297mm"
   width="210mm">
  <defs
     id="defs2" />
  <metadata
     id="metadata5">
    <rdf:RDF>
      <cc:Work
         rdf:about="">
        <dc:format>image/svg+xml</dc:format>
        <dc:type
           rdf:resource="http://purl.org/dc/dcmitype/StillImage" />
        <dc:title></dc:title>
      </cc:Work>
    </rdf:RDF>
  </metadata>
  <g
     id="layer1">
    <circle
       style="stroke-width:0.26458332;fill:#000000"
       r="69.16964"
       cy="143.1637"
       cx="111.50297"
       id="path3680" />
    <path
       transform="rotate(90)"
       d="m 109.90179,-112.25893 a 11.339286,11.339286 0 0 1 -5.66965,9.82011 11.339286,11.339286 0 0 1 -11.339283,0 11.339286,11.339286 0 0 1 -5.669643,-9.82011 l 11.339286,0 z"
       id="path4974"
       style="fill:#ffffff;stroke-width:0.26458332" />
    <path
       transform="rotate(90)"
       d="m 139.76191,-75.973206 a 11.339286,11.339286 0 0 1 -5.66964,9.82011 11.339286,11.339286 0 0 1 -11.33929,0 11.339286,11.339286 0 0 1 -5.66964,-9.82011 l 11.33928,0 z"
       id="path4974-2"
       style="fill:#ffffff;stroke-width:0.26458332" />
    <path
       transform="rotate(90)"
       d="m 183.60714,-94.116081 a 11.339286,11.339286 0 0 1 -5.66964,9.820109 11.339286,11.339286 0 0 1 -11.33929,0 11.339286,11.339286 0 0 1 -5.66964,-9.82011 l 11.33928,1e-6 z"
       id="path4974-5"
       style="fill:#ffffff;stroke-width:0.26458332" />
    <path
       transform="rotate(90)"
       d="m 183.60714,-138.71727 a 11.339286,11.339286 0 0 1 -5.66964,9.82011 11.339286,11.339286 0 0 1 -11.33929,0 11.339286,11.339286 0 0 1 -5.66964,-9.82011 l 11.33928,0 z"
       id="path4974-50"
       style="fill:#ffffff;stroke-width:0.26458332" />
    <path
       transform="rotate(90)"
       d="m 139.76191,-156.10416 a 11.339286,11.339286 0 0 1 -5.66964,9.82011 11.339286,11.339286 0 0 1 -11.33929,0 11.339286,11.339286 0 0 1 -5.66964,-9.82011 l 11.33928,0 z"
       id="path4974-8"
       style="fill:#ffffff;stroke-width:0.26458332" />
  </g>
</svg>
