<svg id="svg292" xmlns="http://www.w3.org/2000/svg" viewBox="0 0 375 114">
    <defs><style>.white-path{fill:#fff;} .black-path{ fill: #231f20; }</style></defs>
  <title>The Boring Company</title>
  <g id="layer1">
  <g id="bore" transform="rotate(218.4 106 58.19)">
    <path id="path229" class="white-path" d="M159.52,58.19A52.31,52.31,0,1,1,107.21,5.88,52.31,52.31,0,0,1,159.52,58.19Z"></path>
    <path id="path231" class="black-path" d="M117.67,26.8a10.46,10.46,0,1,1-10.46-10.46A10.46,10.46,0,0,1,117.67,26.8ZM88.9,50.34A10.46,10.46,0,1,1,78.44,39.88,10.46,10.46,0,0,1,88.9,50.34Zm57.54,0A10.46,10.46,0,1,1,136,39.88,10.46,10.46,0,0,1,146.44,50.34Zm-47.08,34A10.46,10.46,0,1,1,88.9,73.88,10.46,10.46,0,0,1,99.36,84.34Zm36.62,0a10.46,10.46,0,1,1-10.46-10.46A10.46,10.46,0,0,1,136,84.34Z"></path>
  </g>
  <g id="g241">
    <path id="path235" class="white-path " d="M.89,24.32H28.74q9.77,0,15.52,4.75A14.87,14.87,0,0,1,50.1,41.12q0,10.86-12.69,14.7a16,16,0,0,1,10.32,5.39,15.62,15.62,0,0,1,3.84,10.5A14.9,14.9,0,0,1,45.9,83.94q-5.57,4.47-15.61,4.47H.89ZM16.5,36.19V50.07H26.73a8,8,0,0,0,5.39-1.73,6.25,6.25,0,0,0,2.1-5.11,6.36,6.36,0,0,0-2.1-5.2,7.71,7.71,0,0,0-5.39-1.83Zm0,40.36H28.28a7.55,7.55,0,0,0,5.29-1.92,6.81,6.81,0,0,0,2.1-5.29,7.28,7.28,0,0,0-2-5.39,7,7,0,0,0-5.2-2h-12Z"></path>
    <path id="path237" class="white-path" d="M183,63.49V88.42H167.39V24.32h25.29q11.14,0,17.35,5.75A18.24,18.24,0,0,1,216.24,44a20,20,0,0,1-3.38,10.86q-3.38,5.3-11,7.49l15.71,26.11H199.26L184.83,63.5Zm0-27.3V51.62h9.68A7.21,7.21,0,0,0,200.35,44a7.85,7.85,0,0,0-2.1-5.66,7.37,7.37,0,0,0-5.57-2.19Z"></path>
    <path id="path239" class="white-path" d="M222.67,88.42V24.32h15.61v64.1Zm67.17-64.28h15.61V88.42H289.84L263.73,48V88.42H248.12V24.14h15.61l26.11,40.45ZM321,79.74q-9.5-9.31-9.5-23.56T321,32.72a32.28,32.28,0,0,1,23.37-9.31,32.93,32.93,0,0,1,19,5.66A29.51,29.51,0,0,1,375,44.77H356.37a12.26,12.26,0,0,0-11.69-7q-8,0-12.69,5t-4.56,13.42q0,8.4,4.57,13.42t12.42,5a14.16,14.16,0,0,0,9-2.74,13.54,13.54,0,0,0,4.75-7.49H340.12V52.53H375V64.4q-1.74,8.77-9.59,16.34a28.78,28.78,0,0,1-9.31,5.94A30.08,30.08,0,0,1,344.41,89,32.46,32.46,0,0,1,321,79.74Z"></path>
  </g>
  <g id="g245">
    <path id="path243" class="white-path" d="M0,3.68V.06H15.46V3.68H10.1v16H5.33v-16ZM30.62.06h4.77V19.64H30.62V11.52H23.06v8.12H18.29V.06h4.77V7.9h7.56ZM51.45,0V3.63H44.36V7.84h6.25v3.63H44.36V16h7.09v3.63H39.59V0Z"></path>
  </g>
  <g id="g249">
    <path id="path247" class="white-path" d="M236.19,110.68a10.35,10.35,0,0,1,0-14.37,9.87,9.87,0,0,1,7.14-2.85,10.06,10.06,0,0,1,5.8,1.73,9,9,0,0,1,3.54,4.8H247a3.75,3.75,0,0,0-3.57-2.15,5,5,0,0,0-3.88,1.53,6.73,6.73,0,0,0,0,8.2,5,5,0,0,0,3.88,1.53A3.75,3.75,0,0,0,247,107h5.69a9,9,0,0,1-3.54,4.8,10.07,10.07,0,0,1-5.8,1.73,9.92,9.92,0,0,1-7.14-2.82Zm31.23-3.1a6.63,6.63,0,0,0,0-8.2,4.84,4.84,0,0,0-3.77-1.53,4.89,4.89,0,0,0-3.77,1.53,6.73,6.73,0,0,0,0,8.2,5.39,5.39,0,0,0,7.53,0Zm-10.88,3.1a10.34,10.34,0,0,1,0-14.37,9.87,9.87,0,0,1,7.14-2.85,9.71,9.71,0,0,1,7.11,2.85,10.34,10.34,0,0,1,0,14.37,10.35,10.35,0,0,1-14.26,0ZM298,93.74v19.58h-4.77v-11l-4.55,11h-3.55l-4.55-11v11H275.8V93.74h5.47l5.64,13.5,5.61-13.5Zm18.17,6a6.17,6.17,0,0,1-1.42,3.82,5.4,5.4,0,0,1-2.26,1.56,9.51,9.51,0,0,1-3.52.59h-3v7.62h-4.77V93.74h7.73a7.5,7.5,0,0,1,5.3,1.76,5.58,5.58,0,0,1,1.9,4.24ZM306,102.08h3a2.24,2.24,0,0,0,1.7-.64,2.26,2.26,0,0,0,.64-1.67,2.4,2.4,0,0,0-.64-1.73,2.24,2.24,0,0,0-1.7-.67h-3Zm24.54,11.24L329.44,110h-7l-1.09,3.29h-5.08l6.81-19.64h5.8l6.78,19.64Zm-6.92-6.92h4.63l-2.32-7Zm26.16-12.72h4.77v19.64h-4.77l-8-12.36v12.36H337V93.68h4.77l8,12.36Zm17.86,19.64h-4.77V107l-6.78-13.28h5.41l3.76,8.84L369,93.74h5.41L367.64,107Z"></path>
  </g></g></svg>
